<svg width="20" height="20" viewBox="0 0 20 20" fill="none" xmlns="http://www.w3.org/2000/svg">
<path fill-rule="evenodd" clip-rule="evenodd" d="M1 0.5C0.447715 0.5 0 0.947715 0 1.5C0 2.05228 0.447715 2.5 1 2.5H2.14208L4.00921 14.6364C4.02227 14.7321 4.04887 14.8235 4.08702 14.9086C4.20884 15.1804 4.44844 15.3879 4.74086 15.4661C4.8289 15.4898 4.92117 15.5016 5.01554 15.5L13.8377 15.5C15.5594 15.5 17.088 14.3983 17.6324 12.7649L19.9487 5.81623C20.0503 5.51128 19.9992 5.17606 19.8112 4.91529C19.6233 4.65452 19.3214 4.5 19 4.5H4.4733L3.98837 1.34794C3.91332 0.860111 3.49357 0.5 3 0.5H1ZM4.781 6.5L5.85792 13.5L13.8377 13.5C14.6986 13.5 15.4629 12.9491 15.7351 12.1325L17.6126 6.5H4.781Z" fill="white"/>
<path d="M5.5 19.5C6.32843 19.5 7 18.8284 7 18C7 17.1716 6.32843 16.5 5.5 16.5C4.67157 16.5 4 17.1716 4 18C4 18.8284 4.67157 19.5 5.5 19.5Z" fill="white"/>
<path d="M18 18C18 18.8284 17.3284 19.5 16.5 19.5C15.6716 19.5 15 18.8284 15 18C15 17.1716 15.6716 16.5 16.5 16.5C17.3284 16.5 18 17.1716 18 18Z" fill="white"/>
</svg>
