<svg width="28" height="32" viewBox="0 0 28 32" fill="none" xmlns="http://www.w3.org/2000/svg">
<path d="M16 0H19.96C20.248 1.43 21.04 3.234 22.43 5.024C23.79 6.778 25.594 8 28 8V12C24.494 12 21.86 10.372 20 8.342V22C20 23.9778 19.4135 25.9112 18.3147 27.5557C17.2159 29.2002 15.6541 30.4819 13.8268 31.2388C11.9996 31.9957 9.98891 32.1937 8.0491 31.8078C6.10929 31.422 4.32746 30.4696 2.92894 29.0711C1.53041 27.6725 0.578004 25.8907 0.192152 23.9509C-0.1937 22.0111 0.00433284 20.0004 0.761209 18.1732C1.51809 16.3459 2.79981 14.7841 4.4443 13.6853C6.08879 12.5865 8.02219 12 10 12V16C8.81332 16 7.65328 16.3519 6.66658 17.0112C5.67989 17.6705 4.91085 18.6075 4.45673 19.7039C4.0026 20.8003 3.88378 22.0067 4.11529 23.1705C4.3468 24.3344 4.91825 25.4035 5.75736 26.2426C6.59648 27.0818 7.66558 27.6532 8.82946 27.8847C9.99335 28.1162 11.1997 27.9974 12.2961 27.5433C13.3925 27.0891 14.3295 26.3201 14.9888 25.3334C15.6481 24.3467 16 23.1867 16 22V0Z" fill="#999999"/>
</svg>
