<svg width="32" height="32" viewBox="0 0 32 32" fill="none" xmlns="http://www.w3.org/2000/svg">
<path d="M5.33333 0C2.38781 0 0 2.38781 0 5.33333V26.6667C0 29.6122 2.38781 32 5.33333 32H26.6667C29.6122 32 32 29.6122 32 26.6667V5.33333C32 2.38781 29.6122 0 26.6667 0H5.33333ZM6.92262 6.85714H12.9702L17.2649 12.9598L22.4762 6.85714H24.381L18.125 14.1815L25.8393 25.1429H19.7932L14.8095 18.0625L8.7619 25.1429H6.85714L13.9494 16.8408L6.92262 6.85714ZM9.83929 8.38095L20.5878 23.619H22.9226L12.1741 8.38095H9.83929Z" fill="#999999"/>
</svg>
