<svg width="46" height="34" viewBox="0 0 46 34" fill="none" xmlns="http://www.w3.org/2000/svg">
<path d="M23.1481 0.842896H23.404C25.7674 0.851521 37.7425 0.937777 40.9713 1.80608C41.9474 2.07108 42.8369 2.58762 43.5508 3.30407C44.2647 4.02053 44.7781 4.9118 45.0397 5.88884C45.3301 6.9814 45.5342 8.42762 45.6722 9.91984L45.701 10.2189L45.7642 10.9664L45.7872 11.2654C45.9741 13.8933 45.9971 16.3545 46 16.8921V17.1078C45.9971 17.6656 45.9712 20.2935 45.7642 23.0307L45.7412 23.3326L45.7154 23.6316C45.5716 25.2762 45.3588 26.9093 45.0397 28.1111C44.7781 29.0881 44.2647 29.9794 43.5508 30.6959C42.8369 31.4123 41.9474 31.9289 40.9713 32.1939C37.6361 33.0909 24.9594 33.1542 23.2027 33.157H22.7944C21.906 33.157 18.2315 33.1398 14.3788 33.0075L13.89 32.9903L13.6399 32.9788L13.1482 32.9587L12.6565 32.9385C9.46509 32.7976 6.42603 32.5705 5.02581 32.191C4.05006 31.9262 3.16083 31.4101 2.44692 30.6942C1.73302 29.9783 1.21943 29.0876 0.957435 28.1111C0.63829 26.9122 0.425527 25.2762 0.281768 23.6316L0.258766 23.3297L0.235765 23.0307C0.0930507 21.0825 0.0144199 19.1301 0 17.1768L0 16.8231C0.00575036 16.205 0.0287518 14.0687 0.184012 11.7111L0.204138 11.4149L0.212763 11.2654L0.235765 10.9664L0.299019 10.2189L0.327771 9.91984C0.465779 8.42762 0.669917 6.97853 0.96031 5.88884C1.22187 4.9118 1.73526 4.02053 2.44919 3.30407C3.16313 2.58762 4.05259 2.07108 5.02869 1.80608C6.4289 1.43231 9.46797 1.20229 12.6594 1.05853L13.1482 1.03841L13.6427 1.02116L13.89 1.01253L14.3816 0.992405C17.118 0.904435 19.8554 0.855551 22.5932 0.845771L23.1481 0.842896ZM18.4012 10.0722V23.9248L30.3533 17.0014L18.4012 10.0722Z" fill="#999999"/>
</svg>
